<svg version="1.1" id="CSlant" xmlns="http://www.w3.org/2000/svg" xmlns:xlink="http://www.w3.org/1999/xlink" x="0px" y="0px"
	 width="100%" viewBox="0 0 500 500" enable-background="new 0 0 500 500" xml:space="preserve">
<path fill="#FFFFFF" opacity="1.000000" stroke="none"
	d="
M501.000000,198.000000 
	C501.000000,297.999969 500.977417,397.500000 501.095581,496.999817 
	C501.099640,500.423798 500.423828,501.096954 497.000000,501.094696 
	C333.000092,500.986237 169.000137,500.986206 5.000253,501.094635 
	C1.576953,501.096893 0.903020,500.424194 0.905285,497.000122 
	C1.013782,333.000214 1.013754,169.000259 0.905355,5.000372 
	C0.903092,1.577348 1.575412,0.903005 4.999751,0.905271 
	C168.999634,1.013778 332.999603,1.013757 496.999512,0.905371 
	C500.422272,0.903109 501.103760,1.574149 501.096741,4.999767 
	C500.965118,69.166313 501.000000,133.333191 501.000000,198.000000 
z"/>
<path fill="#0E7443" opacity="1.000000" stroke="none" 
	d="
M327.000000,500.000519 
	C223.519165,500.000519 120.538345,500.000793 17.557518,500.000183 
	C7.796587,500.000122 1.999855,494.214233 1.999819,484.470520 
	C1.999232,328.832825 1.999247,173.195145 1.999779,17.557461 
	C1.999812,7.796486 7.785800,1.999854 17.529570,1.999817 
	C173.167252,1.999233 328.804932,1.999248 484.442627,1.999781 
	C494.203613,1.999814 500.000061,7.785807 500.000092,17.529629 
	C500.000671,173.167313 500.000732,328.804993 500.000214,484.442688 
	C500.000183,494.203644 494.214203,499.999908 484.470245,500.000061 
	C432.146820,500.000977 379.823425,500.000519 327.000000,500.000519 
z"/>
<path fill="#FDFEFD" opacity="1.000000" stroke="none" 
	d="
M169.044922,402.760437 
	C149.421829,383.402771 130.158173,364.259430 110.811363,345.200531 
	C108.975464,343.391968 108.364159,341.528503 108.366425,339.032318 
	C108.419319,280.714233 108.423897,222.396088 108.355270,164.078049 
	C108.352066,161.357086 109.152161,159.436829 111.089104,157.526596 
	C129.714157,139.158249 148.272522,120.721985 166.775024,102.230194 
	C168.582596,100.423691 170.423462,99.753250 172.935516,99.780746 
	C183.598114,99.897484 194.269531,100.050079 204.923233,99.720825 
	C209.113358,99.591324 209.755707,101.103966 209.751038,104.821526 
	C209.654190,181.967941 209.678055,259.114502 209.678040,336.261047 
	C209.678024,357.088959 209.604034,377.917358 209.751709,398.744232 
	C209.775940,402.162659 208.939590,403.331116 205.358322,403.250397 
	C193.370193,402.980347 181.374313,403.055267 169.044922,402.760437 
z"/>
<path fill="#FFFFFF" opacity="1.000000" stroke="none" 
	d="
M265.000061,99.835876 
	C286.661041,99.835884 307.822266,99.885468 328.982727,99.780083 
	C332.003693,99.765038 334.207916,100.490227 336.421143,102.724617 
	C354.595154,121.072449 372.891632,139.299408 391.222595,157.490799 
	C393.106506,159.360382 394.091522,161.164017 394.069763,163.947708 
	C393.931549,181.608551 393.891602,199.272202 394.088989,216.931915 
	C394.129272,220.535751 393.020477,221.255981 389.626678,221.241440 
	C358.802216,221.109360 327.976562,221.096878 297.152313,221.253250 
	C293.511200,221.271713 292.818085,220.143097 292.851105,216.765671 
	C293.020355,199.438644 292.813721,182.107697 293.021057,164.781509 
	C293.065796,161.044739 292.108215,160.032639 288.338104,160.071609 
	C269.012024,160.271500 249.681961,160.072876 230.355362,160.245865 
	C226.766647,160.277985 225.528656,159.562943 225.582214,155.664276 
	C225.817856,138.505463 225.782944,121.340523 225.601639,104.180382 
	C225.564728,100.687462 226.493149,99.683640 230.011215,99.752136 
	C241.503677,99.975891 253.003220,99.835953 265.000061,99.835876 
z"/>
<path fill="#FEFFFF" opacity="1.000000" stroke="none" 
	d="
M321.972687,403.165436 
	C291.168579,403.165405 260.858673,403.094849 230.549973,403.253265 
	C226.694550,403.273438 225.527771,402.361847 225.582367,398.366180 
	C225.816605,381.216187 225.767380,364.060364 225.608307,346.908661 
	C225.577850,343.624725 226.526764,342.738861 229.775711,342.763214 
	C249.092789,342.908142 268.412811,342.716095 287.728577,342.931213 
	C291.756927,342.976074 293.148132,342.116394 293.034363,337.828949 
	C292.725281,326.179657 293.064789,314.514160 292.846466,302.860748 
	C292.779663,299.295227 293.458038,298.035553 297.407074,298.059265 
	C328.215118,298.244385 359.024872,298.203003 389.833649,298.098541 
	C392.957550,298.087952 394.143188,298.721832 394.084595,302.151703 
	C393.871277,314.638245 393.950989,327.131012 394.047058,339.620453 
	C394.063782,341.793030 393.419708,343.340698 391.892944,344.858002 
	C373.112305,363.521881 354.341125,382.195801 335.675476,400.974518 
	C331.650085,405.024323 326.842285,402.326263 321.972687,403.165436 
z"/>
</svg>
