<svg xmlns="http://www.w3.org/2000/svg" width="500" height="500" viewBox="0 0 500 500" version="1.1">
    <path d="M 137.588 129.109 L 107 159.217 107 250.500 L 107 341.783 137.588 371.891 L 168.176 402 188.588 402 L 209 402 209 250.500 L 209 99 188.588 99 L 168.176 99 137.588 129.109 M 225 129 L 225 159 258.500 159 L 292 159 292 189.500 L 292 220 342.500 220 L 393 220 393 189.744 L 393 159.488 362.744 129.244 L 332.488 99 278.744 99 L 225 99 225 129 M 292 319.500 L 292 342 258.500 342 L 225 342 225 372 L 225 402 278.756 402 L 332.512 402 362.756 371.744 L 393 341.488 393 319.244 L 393 297 342.500 297 L 292 297 292 319.500"
          stroke="none" fill="#fbfbfb" fill-rule="evenodd"/>
    <path d="M 8.241 2.995 C 6.448 4.088, 4.088 6.448, 2.995 8.241 C 1.026 11.469, 1.007 13.775, 1.007 250 C 1.007 486.225, 1.026 488.531, 2.995 491.759 C 4.088 493.552, 6.448 495.912, 8.241 497.005 C 11.469 498.974, 13.775 498.993, 250 498.993 C 486.225 498.993, 488.531 498.974, 491.759 497.005 C 493.552 495.912, 495.912 493.552, 497.005 491.759 C 498.974 488.531, 498.993 486.225, 498.993 250 C 498.993 13.775, 498.974 11.469, 497.005 8.241 C 495.912 6.448, 493.552 4.088, 491.759 2.995 C 488.531 1.026, 486.225 1.007, 250 1.007 C 13.775 1.007, 11.469 1.026, 8.241 2.995 M 137.588 129.109 L 107 159.217 107 250.500 L 107 341.783 137.588 371.891 L 168.176 402 188.588 402 L 209 402 209 250.500 L 209 99 188.588 99 L 168.176 99 137.588 129.109 M 225 129 L 225 159 258.500 159 L 292 159 292 189.500 L 292 220 342.500 220 L 393 220 393 189.744 L 393 159.488 362.744 129.244 L 332.488 99 278.744 99 L 225 99 225 129 M 292 319.500 L 292 342 258.500 342 L 225 342 225 372 L 225 402 278.756 402 L 332.512 402 362.756 371.744 L 393 341.488 393 319.244 L 393 297 342.500 297 L 292 297 292 319.500"
          stroke="none" fill="#0c7444" fill-rule="evenodd"/>
</svg>
